<?xml version="1.0" standalone="no"?>
<!DOCTYPE svg PUBLIC "-//W3C//DTD SVG 20010904//EN"
 "http://www.w3.org/TR/2001/REC-SVG-20010904/DTD/svg10.dtd">
<svg version="1.0" xmlns="http://www.w3.org/2000/svg"
 width="10084.000000pt" height="7583.000000pt" viewBox="0 0 10084.000000 7583.000000"
 preserveAspectRatio="xMidYMid meet">

<g transform="translate(0.000000,7583.000000) scale(0.100000,-0.100000)"
fill="#000000" stroke="none">
<path d="M16036 73248 c-1524 -2266 -1731 -2578 -1743 -2628 -21 -95 -81 -438
-113 -655 -74 -502 -120 -972 -152 -1545 -16 -292 -16 -1228 0 -1520 44 -786
124 -1473 251 -2144 21 -111 856 -4178 1856 -9039 1000 -4861 1816 -8840 1814
-8842 -2 -2 -76 -8 -164 -14 -1530 -107 -3058 -518 -4330 -1167 -1420 -723
-2396 -1677 -2787 -2723 -53 -142 -10594 -36675 -10623 -36819 -37 -177 -48
-324 -42 -536 6 -200 20 -311 63 -503 248 -1107 1205 -2311 2853 -3591 623
-483 1333 -963 2227 -1503 l32 -19 28 70 29 70 2205 -1 c1213 0 8332 -6 15820
-13 7488 -7 13618 -11 13623 -9 4 2 7 1306 7 2897 l0 2893 -5027 6 c-2766 4
-8833 9 -13483 12 -4650 3 -9324 8 -10387 11 l-1931 6 -6 32 c-3 17 -9 164
-12 326 -11 486 27 869 131 1320 29 126 9455 33670 9586 34115 179 604 479
1200 869 1720 171 227 308 384 544 621 235 234 424 399 666 581 161 120 489
338 497 329 3 -3 446 -2147 984 -4763 538 -2617 1004 -4868 1035 -5002 540
-2340 1609 -4230 2966 -5242 588 -439 1214 -697 1852 -764 167 -17 466 -20
617 -5 475 47 910 187 1385 446 l82 44 -62 303 c-1289 6280 -9422 45817 -9426
45817 -3 0 -783 -1157 -1734 -2572z"/>
<path d="M78930 34014 c-225 -29 -446 -104 -625 -214 -204 -125 -414 -331
-565 -554 -417 -619 -424 -1534 -17 -2154 228 -347 547 -606 882 -716 166 -54
249 -67 455 -73 155 -4 217 -2 303 11 351 55 645 212 907 482 116 120 169 186
252 314 143 219 237 480 273 756 17 133 20 421 5 544 -58 462 -255 855 -589
1172 -174 165 -358 279 -569 352 -175 61 -273 77 -487 81 -104 2 -206 1 -225
-1z"/>
<path d="M32610 33999 c-693 -46 -1352 -237 -1910 -554 -138 -78 -416 -267
-542 -367 -449 -359 -860 -832 -1151 -1326 -558 -944 -762 -2149 -562 -3312
141 -813 508 -1572 1103 -2280 146 -173 556 -580 737 -731 621 -517 1466
-1054 2830 -1799 1027 -561 1610 -927 2020 -1269 132 -110 428 -409 529 -536
270 -337 469 -734 550 -1097 47 -209 59 -340 53 -588 -5 -235 -17 -329 -63
-520 -166 -680 -720 -1333 -1373 -1620 -391 -172 -840 -251 -1336 -237 -920
27 -1735 370 -2565 1081 -152 130 -489 471 -610 616 -724 871 -1217 1990
-1511 3433 l-43 207 -203 0 -203 0 0 -3090 0 -3090 203 0 203 0 47 106 c161
366 392 622 704 778 144 72 223 91 383 91 145 -1 228 -14 407 -66 144 -41 239
-79 553 -219 630 -280 1065 -441 1475 -543 834 -209 1837 -206 2703 8 896 222
1653 658 2308 1328 411 419 715 844 949 1322 270 552 417 1087 477 1740 19
207 16 738 -5 951 -85 846 -343 1576 -794 2244 -492 730 -1384 1480 -2704
2273 -296 177 -505 296 -969 550 -1129 617 -1833 1030 -2199 1291 -288 205
-645 539 -855 800 -281 350 -428 665 -480 1036 -81 578 52 1108 394 1565 231
308 489 524 812 680 373 179 772 255 1278 242 513 -13 916 -115 1395 -352 422
-208 767 -460 1158 -845 282 -277 467 -498 672 -805 441 -661 747 -1445 900
-2305 14 -80 29 -163 33 -185 l8 -40 227 -3 228 -2 -6 187 c-7 200 -115 5111
-115 5207 l0 56 -168 0 -169 0 -12 -67 c-22 -123 -99 -426 -136 -538 -105
-313 -234 -452 -465 -501 -238 -50 -487 30 -1188 383 -429 217 -590 292 -819
384 -654 261 -1431 378 -2183 328z"/>
<path d="M86485 32478 c-509 -983 -1089 -1852 -1747 -2620 -238 -278 -389
-440 -703 -753 -425 -426 -818 -777 -1303 -1164 l-192 -153 0 -209 0 -209 670
0 670 0 0 -3267 c0 -3641 6 -4112 56 -4648 19 -209 37 -316 74 -447 78 -279
214 -545 414 -813 111 -149 420 -460 561 -566 337 -252 678 -393 1120 -461
187 -29 594 -31 785 -5 545 76 994 271 1385 600 441 371 819 940 1094 1643
l20 51 -165 133 c-91 73 -166 131 -168 129 -1 -2 -33 -58 -71 -124 -166 -293
-350 -541 -532 -715 -224 -215 -443 -326 -682 -346 -96 -8 -175 7 -264 52
-277 138 -453 397 -501 740 -40 278 -40 232 -43 4197 l-3 3847 1215 0 1215 0
-2 598 -3 597 -1212 3 -1213 2 -2 2058 -3 2057 -180 3 -180 2 -110 -212z"/>
<path d="M59935 28894 c-639 -67 -1136 -267 -1675 -674 -346 -262 -739 -642
-1092 -1059 l-38 -44 -2 724 -3 724 -2090 0 -2090 0 0 -224 0 -224 120 -22
c339 -62 561 -160 711 -313 157 -161 233 -486 264 -1137 16 -336 8 -7499 -9
-7680 -41 -445 -85 -650 -166 -772 -148 -223 -442 -383 -815 -442 l-105 -17
-3 -217 -2 -217 2595 0 2595 0 0 220 0 220 -22 0 c-44 0 -235 48 -324 82 -148
56 -238 112 -339 213 -57 57 -102 112 -122 151 -97 183 -155 498 -183 988 -6
114 -10 1330 -10 3403 l0 3225 76 131 c462 795 948 1230 1478 1322 190 32 366
14 515 -56 244 -114 420 -328 515 -627 45 -144 72 -352 97 -767 17 -266 25
-6107 9 -6495 -19 -494 -59 -791 -131 -972 -32 -82 -125 -217 -203 -294 -137
-136 -306 -227 -515 -276 -69 -17 -132 -32 -138 -34 -10 -3 -13 -55 -13 -219
l0 -215 2595 0 2595 0 0 218 0 218 -92 13 c-195 27 -440 103 -561 174 -133 78
-234 183 -284 296 -74 165 -119 423 -154 876 -8 106 -14 1026 -19 3135 -5
1958 -11 3050 -18 3175 -52 899 -99 1232 -228 1628 -127 390 -310 715 -575
1022 -403 468 -873 729 -1481 821 -99 15 -568 28 -663 18z"/>
<path d="M69490 28889 c-855 -63 -1595 -312 -2210 -742 -697 -487 -1253 -1189
-1534 -1937 -325 -863 -326 -1909 -1 -2805 125 -344 327 -707 556 -996 108
-138 414 -441 564 -560 356 -283 812 -549 1278 -745 l138 -58 -158 -76 c-973
-471 -1615 -1045 -1979 -1770 -253 -505 -337 -1035 -244 -1547 126 -698 552
-1246 1309 -1683 l73 -42 -218 -73 c-579 -191 -973 -417 -1196 -685 -305 -365
-426 -809 -338 -1241 90 -439 416 -879 860 -1161 510 -323 1320 -570 2300
-702 740 -100 1657 -119 2410 -50 885 80 1756 295 2413 595 965 441 1700 1360
1902 2377 42 211 56 346 62 587 15 624 -107 1149 -371 1600 -229 389 -640 764
-1061 970 -384 187 -922 316 -1610 385 -594 59 -869 65 -2240 50 -1236 -13
-1289 -12 -1495 31 -166 34 -316 94 -430 172 -149 102 -278 288 -336 484 -36
120 -45 351 -20 502 81 484 455 878 919 966 109 21 249 19 852 -11 751 -36
885 -35 1194 17 628 105 1460 450 2001 831 535 377 964 863 1234 1397 275 545
408 1208 375 1876 -17 366 -75 666 -195 1015 -125 368 -353 731 -716 1142
l-81 93 974 5 974 5 3 663 2 662 -1723 0 -1724 0 -184 74 c-525 210 -1036 336
-1547 381 -177 16 -598 18 -782 4z m800 -754 c434 -65 752 -368 964 -916 165
-429 265 -1044 306 -1884 13 -263 13 -1098 0 -1356 -46 -933 -188 -1569 -431
-1931 -287 -429 -654 -648 -1083 -648 -381 1 -713 204 -988 608 -273 402 -411
987 -459 1952 -13 271 -7 1255 11 1525 63 994 191 1598 420 1970 196 320 461
552 737 644 148 50 346 63 523 36z m285 -12510 c1074 -11 1775 -55 2100 -132
320 -75 578 -208 766 -393 138 -136 204 -257 234 -426 29 -164 12 -387 -42
-558 -33 -105 -119 -272 -185 -361 -333 -445 -1023 -755 -1954 -880 -299 -40
-532 -55 -924 -62 -1145 -18 -1989 124 -2457 415 -122 75 -214 151 -348 286
-281 284 -415 574 -415 902 0 196 34 346 117 506 102 199 280 378 498 503 217
123 584 187 1175 204 246 7 374 7 1435 -4z"/>
<path d="M95145 28894 c-540 -34 -1050 -126 -1553 -279 -1002 -304 -1730 -781
-2224 -1454 -357 -488 -538 -1000 -540 -1526 -2 -407 118 -719 395 -1025 333
-366 774 -546 1292 -527 291 11 532 81 740 215 107 69 220 168 303 267 170
202 258 384 313 645 30 142 32 395 5 520 -57 263 -186 512 -414 798 -200 252
-282 428 -282 607 0 160 47 269 172 401 172 181 481 336 792 399 221 44 507
59 682 34 309 -43 584 -187 814 -425 221 -229 291 -397 334 -804 32 -299 38
-479 43 -1386 l5 -931 -398 -205 c-2062 -1063 -3413 -1924 -4019 -2559 -585
-614 -900 -1260 -975 -1998 -15 -150 -12 -476 5 -623 51 -436 210 -831 464
-1148 71 -90 241 -260 331 -333 357 -289 819 -434 1315 -413 946 39 1958 581
3135 1680 109 102 136 123 141 109 4 -10 14 -67 23 -128 40 -260 119 -513 227
-730 88 -179 177 -303 310 -436 266 -266 610 -419 1079 -481 147 -19 541 -16
680 5 439 67 814 232 1156 507 208 167 523 517 731 810 88 125 233 348 233
360 0 6 -274 251 -311 277 -15 11 -22 6 -55 -40 -120 -169 -253 -293 -374
-351 -59 -28 -74 -31 -165 -31 -93 0 -105 2 -166 32 -127 63 -221 205 -259
394 -42 206 -43 265 -51 3384 -4 1650 -11 3027 -14 3060 -3 33 -10 148 -16
255 -19 368 -63 717 -109 888 -75 273 -254 605 -481 892 -112 142 -435 462
-594 590 -491 393 -1032 600 -1790 686 -134 15 -776 27 -930 18z m875 -7173
l0 -1879 -82 -74 c-286 -257 -595 -454 -843 -537 -145 -48 -259 -64 -410 -58
-301 14 -529 120 -709 332 -326 385 -425 871 -295 1441 166 730 808 1544 1803
2289 194 144 512 365 528 365 4 0 8 -846 8 -1879z"/>
<path d="M40380 28340 l0 -230 24 0 c48 0 282 -52 383 -85 204 -67 384 -180
467 -293 116 -159 180 -447 217 -987 8 -120 14 -1031 19 -3125 5 -2040 11
-3012 19 -3140 44 -711 96 -1133 181 -1465 131 -516 396 -961 803 -1351 406
-390 815 -599 1330 -681 153 -24 566 -24 751 1 796 105 1400 421 2056 1076
184 184 343 362 518 581 l117 147 3 -744 2 -744 2090 0 2090 0 0 218 0 218
-86 12 c-125 19 -337 75 -432 115 -115 49 -221 117 -289 186 -156 157 -217
370 -275 956 -9 89 -13 1329 -17 4840 l-6 4720 -2087 3 -2088 2 0 -228 0 -229
83 -12 c130 -20 335 -76 434 -119 347 -149 459 -317 527 -792 55 -383 56 -431
56 -3893 l0 -3208 -112 -167 c-441 -660 -788 -1033 -1109 -1194 -175 -87 -326
-121 -534 -121 -168 1 -251 20 -383 87 -168 87 -297 224 -387 409 -100 209
-128 347 -167 852 -8 109 -13 1296 -17 4380 l-6 4230 -2087 3 -2088 2 0 -230z"/>
<path d="M76350 28342 l0 -229 88 -6 c430 -31 776 -188 917 -417 130 -209 195
-579 216 -1225 14 -450 6 -7231 -9 -7410 -38 -437 -80 -651 -157 -806 -66
-130 -227 -275 -405 -364 -153 -77 -359 -130 -552 -142 l-98 -6 0 -219 0 -218
2770 0 2770 0 -2 217 -3 218 -120 12 c-399 41 -704 166 -847 346 -56 72 -112
188 -147 305 -35 117 -75 354 -91 527 -6 66 -13 136 -17 155 -3 19 -9 2161
-12 4760 l-6 4725 -2147 3 -2148 2 0 -228z"/>
<path d="M69980 7860 l0 -2680 -8945 0 -8945 0 -142 -134 c-967 -904 -1687
-1919 -2083 -2936 -167 -429 -291 -903 -348 -1327 l-14 -103 20528 0 20528 0
-5 37 c-99 711 -283 1302 -605 1945 -749 1497 -2162 2903 -4124 4105 -3005
1840 -7179 3108 -11765 3573 -1214 123 -2658 199 -3767 200 l-313 0 0 -2680z"/>
<path d="M67945 10489 c-1262 -70 -2363 -176 -3500 -339 -3909 -561 -7420
-1710 -10065 -3296 -140 -84 -264 -159 -275 -168 -18 -14 664 -15 6993 -16
l7012 0 0 1915 c0 1053 -3 1914 -7 1914 -5 -1 -75 -6 -158 -10z"/>
</g>
</svg>
